<svg width="424" height="24" viewBox="0 0 424 24" fill="none" xmlns="http://www.w3.org/2000/svg">
<path d="M173.836 5.625V17H171.891V5.625H173.836ZM177.406 5.625V7.1875H168.352V5.625H177.406ZM180.047 10.1562V17H178.164V8.54688H179.961L180.047 10.1562ZM182.633 8.49219L182.617 10.2422C182.503 10.2214 182.378 10.2057 182.242 10.1953C182.112 10.1849 181.982 10.1797 181.852 10.1797C181.529 10.1797 181.245 10.2266 181 10.3203C180.755 10.4089 180.549 10.5391 180.383 10.7109C180.221 10.8776 180.096 11.0807 180.008 11.3203C179.919 11.5599 179.867 11.8281 179.852 12.125L179.422 12.1562C179.422 11.625 179.474 11.1328 179.578 10.6797C179.682 10.2266 179.839 9.82812 180.047 9.48438C180.26 9.14062 180.526 8.8724 180.844 8.67969C181.167 8.48698 181.539 8.39062 181.961 8.39062C182.076 8.39062 182.198 8.40104 182.328 8.42188C182.464 8.44271 182.565 8.46615 182.633 8.49219ZM188.898 15.0078V8.54688H190.789V17H189.008L188.898 15.0078ZM189.164 13.25L189.797 13.2344C189.797 13.8021 189.734 14.3255 189.609 14.8047C189.484 15.2786 189.292 15.6927 189.031 16.0469C188.771 16.3958 188.438 16.6693 188.031 16.8672C187.625 17.0599 187.138 17.1562 186.57 17.1562C186.159 17.1562 185.781 17.0964 185.438 16.9766C185.094 16.8568 184.797 16.6719 184.547 16.4219C184.302 16.1719 184.112 15.8464 183.977 15.4453C183.841 15.0443 183.773 14.5651 183.773 14.0078V8.54688H185.656V14.0234C185.656 14.3307 185.693 14.5885 185.766 14.7969C185.839 15 185.938 15.1641 186.062 15.2891C186.188 15.4141 186.333 15.5026 186.5 15.5547C186.667 15.6068 186.844 15.6328 187.031 15.6328C187.568 15.6328 187.99 15.5286 188.297 15.3203C188.609 15.1068 188.831 14.8203 188.961 14.4609C189.096 14.1016 189.164 13.6979 189.164 13.25ZM197.461 14.7109C197.461 14.5234 197.414 14.3542 197.32 14.2031C197.227 14.0469 197.047 13.9062 196.781 13.7812C196.521 13.6562 196.135 13.5417 195.625 13.4375C195.177 13.3385 194.766 13.2214 194.391 13.0859C194.021 12.9453 193.703 12.776 193.438 12.5781C193.172 12.3802 192.966 12.1458 192.82 11.875C192.674 11.6042 192.602 11.2917 192.602 10.9375C192.602 10.5938 192.677 10.2682 192.828 9.96094C192.979 9.65365 193.195 9.38281 193.477 9.14844C193.758 8.91406 194.099 8.72917 194.5 8.59375C194.906 8.45833 195.359 8.39062 195.859 8.39062C196.568 8.39062 197.174 8.51042 197.68 8.75C198.19 8.98438 198.581 9.30469 198.852 9.71094C199.122 10.112 199.258 10.5651 199.258 11.0703H197.375C197.375 10.8464 197.318 10.638 197.203 10.4453C197.094 10.2474 196.927 10.0885 196.703 9.96875C196.479 9.84375 196.198 9.78125 195.859 9.78125C195.536 9.78125 195.268 9.83333 195.055 9.9375C194.846 10.0365 194.69 10.1667 194.586 10.3281C194.487 10.4896 194.438 10.6667 194.438 10.8594C194.438 11 194.464 11.1276 194.516 11.2422C194.573 11.3516 194.667 11.4531 194.797 11.5469C194.927 11.6354 195.104 11.7188 195.328 11.7969C195.557 11.875 195.844 11.9505 196.188 12.0234C196.833 12.1589 197.388 12.3333 197.852 12.5469C198.32 12.7552 198.68 13.026 198.93 13.3594C199.18 13.6875 199.305 14.1042 199.305 14.6094C199.305 14.9844 199.224 15.3281 199.062 15.6406C198.906 15.9479 198.677 16.2161 198.375 16.4453C198.073 16.6693 197.711 16.8438 197.289 16.9688C196.872 17.0938 196.404 17.1562 195.883 17.1562C195.117 17.1562 194.469 17.0208 193.938 16.75C193.406 16.474 193.003 16.1224 192.727 15.6953C192.456 15.263 192.32 14.8151 192.32 14.3516H194.141C194.161 14.7005 194.258 14.9792 194.43 15.1875C194.607 15.3906 194.826 15.5391 195.086 15.6328C195.352 15.7214 195.625 15.7656 195.906 15.7656C196.245 15.7656 196.529 15.7214 196.758 15.6328C196.987 15.5391 197.161 15.4141 197.281 15.2578C197.401 15.0964 197.461 14.9141 197.461 14.7109ZM204.828 8.54688V9.92188H200.062V8.54688H204.828ZM201.438 6.47656H203.32V14.6641C203.32 14.9245 203.357 15.125 203.43 15.2656C203.508 15.401 203.615 15.4922 203.75 15.5391C203.885 15.5859 204.044 15.6094 204.227 15.6094C204.357 15.6094 204.482 15.6016 204.602 15.5859C204.721 15.5703 204.818 15.5547 204.891 15.5391L204.898 16.9766C204.742 17.0234 204.56 17.0651 204.352 17.1016C204.148 17.138 203.914 17.1562 203.648 17.1562C203.216 17.1562 202.833 17.0807 202.5 16.9297C202.167 16.7734 201.906 16.5208 201.719 16.1719C201.531 15.8229 201.438 15.3594 201.438 14.7812V6.47656ZM210.008 17.1562C209.383 17.1562 208.818 17.0547 208.312 16.8516C207.812 16.6432 207.385 16.3542 207.031 15.9844C206.682 15.6146 206.414 15.1797 206.227 14.6797C206.039 14.1797 205.945 13.6406 205.945 13.0625V12.75C205.945 12.0885 206.042 11.4896 206.234 10.9531C206.427 10.4167 206.695 9.95833 207.039 9.57812C207.383 9.19271 207.789 8.89844 208.258 8.69531C208.727 8.49219 209.234 8.39062 209.781 8.39062C210.385 8.39062 210.914 8.49219 211.367 8.69531C211.82 8.89844 212.195 9.1849 212.492 9.55469C212.794 9.91927 213.018 10.3542 213.164 10.8594C213.315 11.3646 213.391 11.9219 213.391 12.5312V13.3359H206.859V11.9844H211.531V11.8359C211.521 11.4974 211.453 11.1797 211.328 10.8828C211.208 10.5859 211.023 10.3464 210.773 10.1641C210.523 9.98177 210.19 9.89062 209.773 9.89062C209.461 9.89062 209.182 9.95833 208.938 10.0938C208.698 10.224 208.497 10.4141 208.336 10.6641C208.174 10.9141 208.049 11.2161 207.961 11.5703C207.878 11.9193 207.836 12.3125 207.836 12.75V13.0625C207.836 13.4323 207.885 13.776 207.984 14.0938C208.089 14.4062 208.24 14.6797 208.438 14.9141C208.635 15.1484 208.875 15.3333 209.156 15.4688C209.438 15.599 209.758 15.6641 210.117 15.6641C210.57 15.6641 210.974 15.5729 211.328 15.3906C211.682 15.2083 211.99 14.9505 212.25 14.6172L213.242 15.5781C213.06 15.8438 212.823 16.099 212.531 16.3438C212.24 16.5833 211.883 16.7786 211.461 16.9297C211.044 17.0807 210.56 17.1562 210.008 17.1562ZM220.016 15.25V5H221.906V17H220.195L220.016 15.25ZM214.516 12.8672V12.7031C214.516 12.0625 214.591 11.4792 214.742 10.9531C214.893 10.4219 215.112 9.96615 215.398 9.58594C215.685 9.20052 216.034 8.90625 216.445 8.70312C216.857 8.49479 217.32 8.39062 217.836 8.39062C218.346 8.39062 218.794 8.48958 219.18 8.6875C219.565 8.88542 219.893 9.16927 220.164 9.53906C220.435 9.90365 220.651 10.3411 220.812 10.8516C220.974 11.3568 221.089 11.9193 221.156 12.5391V13.0625C221.089 13.6667 220.974 14.2188 220.812 14.7188C220.651 15.2188 220.435 15.651 220.164 16.0156C219.893 16.3802 219.562 16.6615 219.172 16.8594C218.786 17.0573 218.336 17.1562 217.82 17.1562C217.31 17.1562 216.849 17.0495 216.438 16.8359C216.031 16.6224 215.685 16.3229 215.398 15.9375C215.112 15.5521 214.893 15.099 214.742 14.5781C214.591 14.0521 214.516 13.4818 214.516 12.8672ZM216.398 12.7031V12.8672C216.398 13.2526 216.432 13.612 216.5 13.9453C216.573 14.2786 216.685 14.5729 216.836 14.8281C216.987 15.0781 217.182 15.276 217.422 15.4219C217.667 15.5625 217.958 15.6328 218.297 15.6328C218.724 15.6328 219.076 15.5391 219.352 15.3516C219.628 15.1641 219.844 14.9115 220 14.5938C220.161 14.2708 220.271 13.9115 220.328 13.5156V12.1016C220.297 11.7943 220.232 11.5078 220.133 11.2422C220.039 10.9766 219.911 10.7448 219.75 10.5469C219.589 10.3438 219.388 10.1875 219.148 10.0781C218.914 9.96354 218.635 9.90625 218.312 9.90625C217.969 9.90625 217.677 9.97917 217.438 10.125C217.198 10.2708 217 10.4714 216.844 10.7266C216.693 10.9818 216.581 11.2786 216.508 11.6172C216.435 11.9557 216.398 12.3177 216.398 12.7031ZM227.867 5H229.75V15.1953L229.57 17H227.867V5ZM235.266 12.6953V12.8594C235.266 13.4844 235.195 14.0599 235.055 14.5859C234.919 15.1068 234.711 15.5599 234.43 15.9453C234.154 16.3307 233.81 16.6302 233.398 16.8438C232.992 17.0521 232.521 17.1562 231.984 17.1562C231.458 17.1562 231 17.0573 230.609 16.8594C230.219 16.6615 229.891 16.3802 229.625 16.0156C229.365 15.651 229.154 15.2161 228.992 14.7109C228.831 14.2057 228.716 13.6484 228.648 13.0391V12.5156C228.716 11.901 228.831 11.3438 228.992 10.8438C229.154 10.3385 229.365 9.90365 229.625 9.53906C229.891 9.16927 230.216 8.88542 230.602 8.6875C230.992 8.48958 231.448 8.39062 231.969 8.39062C232.51 8.39062 232.987 8.49479 233.398 8.70312C233.815 8.91146 234.161 9.20833 234.438 9.59375C234.714 9.97396 234.919 10.4271 235.055 10.9531C235.195 11.4792 235.266 12.0599 235.266 12.6953ZM233.383 12.8594V12.6953C233.383 12.3151 233.352 11.9583 233.289 11.625C233.227 11.2865 233.122 10.9896 232.977 10.7344C232.836 10.4792 232.643 10.2786 232.398 10.1328C232.159 9.98177 231.859 9.90625 231.5 9.90625C231.167 9.90625 230.88 9.96354 230.641 10.0781C230.401 10.1927 230.201 10.349 230.039 10.5469C229.878 10.7448 229.75 10.974 229.656 11.2344C229.568 11.4948 229.508 11.776 229.477 12.0781V13.4922C229.523 13.8828 229.622 14.2422 229.773 14.5703C229.93 14.8932 230.148 15.1536 230.43 15.3516C230.711 15.5443 231.073 15.6406 231.516 15.6406C231.865 15.6406 232.159 15.5703 232.398 15.4297C232.638 15.2891 232.828 15.0938 232.969 14.8438C233.115 14.5885 233.219 14.2917 233.281 13.9531C233.349 13.6146 233.383 13.25 233.383 12.8594ZM239.219 16.0781L241.516 8.54688H243.531L240.141 18.2891C240.062 18.4974 239.961 18.724 239.836 18.9688C239.711 19.2135 239.547 19.4453 239.344 19.6641C239.146 19.888 238.898 20.0677 238.602 20.2031C238.305 20.3438 237.945 20.4141 237.523 20.4141C237.357 20.4141 237.195 20.3984 237.039 20.3672C236.888 20.3411 236.745 20.3125 236.609 20.2812L236.602 18.8438C236.654 18.849 236.716 18.8542 236.789 18.8594C236.867 18.8646 236.93 18.8672 236.977 18.8672C237.289 18.8672 237.549 18.8281 237.758 18.75C237.966 18.6771 238.135 18.5573 238.266 18.3906C238.401 18.224 238.516 18 238.609 17.7188L239.219 16.0781ZM237.922 8.54688L239.93 14.875L240.266 16.8594L238.961 17.1953L235.891 8.54688H237.922Z" fill="#8989A2"/>
<path d="M0 11H144" stroke="#D6D6D6"/>
<path d="M280 11H424" stroke="#D6D6D6"/>
</svg>
